<svg width="256" height="256" viewBox="0 0 256 256" xmlns="http://www.w3.org/2000/svg">
  <!-- Dark background -->
  <rect width="256" height="256" fill="#1a1a1a" rx="32"/>
  
  <!-- 4x4 Grid of colorful step buttons -->
  <rect x="32" y="32" width="48" height="48" fill="#4ade80" rx="8"/>
  <rect x="96" y="32" width="48" height="48" fill="#3b82f6" rx="8"/>
  <rect x="160" y="32" width="48" height="48" fill="#f59e0b" rx="8"/>
  <rect x="224" y="32" width="48" height="48" fill="#ef4444" rx="8"/>
  
  <rect x="32" y="96" width="48" height="48" fill="#8b5cf6" rx="8"/>
  <rect x="96" y="96" width="48" height="48" fill="#06b6d4" rx="8"/>
  <rect x="160" y="96" width="48" height="48" fill="#10b981" rx="8"/>
  <rect x="224" y="96" width="48" height="48" fill="#f97316" rx="8"/>
  
  <rect x="32" y="160" width="48" height="48" fill="#ec4899" rx="8"/>
  <rect x="96" y="160" width="48" height="48" fill="#84cc16" rx="8"/>
  <rect x="160" y="160" width="48" height="48" fill="#6366f1" rx="8"/>
  <rect x="224" y="160" width="48" height="48" fill="#14b8a6" rx="8"/>
  
  <rect x="32" y="224" width="48" height="48" fill="#f43f5e" rx="8"/>
  <rect x="96" y="224" width="48" height="48" fill="#a855f7" rx="8"/>
  <rect x="160" y="224" width="48" height="48" fill="#0ea5e9" rx="8"/>
  <rect x="224" y="224" width="48" height="48" fill="#22c55e" rx="8"/>
  
  <!-- Current step indicator -->
  <circle cx="56" cy="56" r="4" fill="white" opacity="0.9"/>
  
  <!-- Text labels -->
  <text x="128" y="140" text-anchor="middle" fill="white" font-family="Arial" font-size="24" font-weight="bold">STEP</text>
  <text x="128" y="168" text-anchor="middle" fill="white" font-family="Arial" font-size="16">SEQUENCER</text>
</svg>